<?xml version="1.0" encoding="utf-8"?>
<!-- Generator: Adobe Illustrator 25.0.0, SVG Export Plug-In . SVG Version: 6.00 Build 0)  -->
<svg version="1.1" id="Layer_1" xmlns="http://www.w3.org/2000/svg" xmlns:xlink="http://www.w3.org/1999/xlink" x="0px" y="0px"
	 viewBox="0 0 44 44.4" style="enable-background:new 0 0 44 44.4;" xml:space="preserve">
<g>
	<path style="fill:#231F20;" d="M16.2,4.7C17.4,3.1,20.1,2,23,2s5.8,1.2,6.9,2.9c0.2,0.3,0.5,0.5,0.8,0.5c0.2,0,0.4-0.1,0.5-0.2
		c0.5-0.3,0.6-0.9,0.3-1.4C29.9,1.2,26,0,23,0c-3.6,0-6.9,1.4-8.4,3.6c-0.4,0.4-0.3,1,0.2,1.4C15.2,5.3,15.9,5.2,16.2,4.7z"/>
	<path style="fill:#231F20;" d="M23.1,4.6C21,4.5,19,5.3,17.6,6.8c-0.4,0.4-0.3,1,0.1,1.4c0.4,0.4,1,0.3,1.4-0.1
		c1-1.1,2.4-1.7,3.9-1.6c1.7,0,3.3,0.7,3.9,1.6c0.2,0.3,0.5,0.4,0.8,0.4c0.2,0,0.4-0.1,0.6-0.2c0.5-0.3,0.6-0.9,0.3-1.4
		C27.4,5.3,25,4.6,23.1,4.6z"/>
	<path style="fill:#231F20;" d="M41.1,12.7H20.7c-0.6,0-1,0.4-1,1v2.2h-1.3c-0.4-1.7-2-3-3.9-3H14h-0.1c-1.8,0-3.3,1.3-3.5,3h-1
		c-0.2-1.7-1.6-3-3.4-3S2.8,14.2,2.6,16C1.1,16.2,0,17.4,0,18.9v21.4c0,1.7,1.3,3,3,3h18.2c1.6,0.7,3.3,1.1,5.2,1.1
		c1.9,0,3.7-0.4,5.3-1.2c0.1,0,0.2,0.1,0.4,0.1h9.1c1.7,0,3-1.3,3-3V15.7C44.1,14,42.8,12.7,41.1,12.7z M13.7,14.9L13.7,14.9h0.8
		c0.7,0,1.4,0.4,1.7,1h-3.9C12.6,15.3,13.1,14.9,13.7,14.9z M5.9,14.9c0.6,0,1.2,0.4,1.4,1H4.5C4.7,15.3,5.2,14.9,5.9,14.9z M3,41.2
		v0.1c-0.6,0-1-0.4-1-1V21h17.5c-3.5,2.2-5.9,6.2-5.9,10.7c0,3.8,1.7,7.2,4.4,9.5H3z M26.3,42.4c-5.9,0-10.6-4.8-10.6-10.7
		c0-5.9,4.8-10.7,10.7-10.7C32.3,21,37,25.8,37,31.7C37,37.6,32.2,42.4,26.3,42.4z M42.1,40.4c0,0.4-0.4,0.9-1,0.9h-6.5
		c2.7-2.3,4.4-5.7,4.4-9.5c0-3.6-1.6-6.9-4-9.2h7.1V40.4z M42.1,20.5h-9.9c-1.7-0.9-3.7-1.4-5.8-1.4c0,0,0,0-0.1,0H2V19
		c0-0.7,0.4-1.1,1-1.1h0.4h4.9h12.4c0.6,0,1-0.4,1-1v-2.2h19.4c0.6,0,1,0.4,1,1V20.5z"/>
	<path style="fill:#231F20;" d="M26.3,22.9c-4.9,0-8.8,4-8.8,8.8c0,4.9,4,8.8,8.8,8.8c4.9,0,8.8-4,8.8-8.8
		C35.1,26.8,31.2,22.9,26.3,22.9z M26.3,38.5c-3.8,0-6.8-3.1-6.8-6.8s3.1-6.8,6.8-6.8s6.8,3.1,6.8,6.8S30.1,38.5,26.3,38.5z"/>
	<path style="fill:#231F20;" d="M38.8,15.5h-4.5c-0.6,0-1,0.4-1,1v2.6c0,0.5,0.4,1,1,1h4.5c0.6,0,1-0.4,1-1v-2.6
		C39.8,15.9,39.4,15.5,38.8,15.5z M37.8,18.1h-2.5v-0.6h2.5V18.1z"/>
</g>
</svg>
