<svg xmlns="http://www.w3.org/2000/svg" viewBox="0 0 64 64"><g id="MONITORING-2" data-name="MONITORING"><path d="M32,43A20,20,0,0,0,52,23C50.9-3.53,13.09-3.53,12,23A20,20,0,0,0,32,43ZM32,5A18,18,0,0,1,50,23c-1,23.88-35,23.87-36,0A18,18,0,0,1,32,5Z"/><path d="M32,10a1,1,0,0,0,0-2A15,15,0,0,0,17,23a1,1,0,0,0,2,0A13,13,0,0,1,32,10Z"/><path d="M27.11,30c.21,6.46,9.57,6.46,9.78,0C36.68,23.54,27.32,23.54,27.11,30Zm7.78,0a2.89,2.89,0,0,1-5.78,0A2.89,2.89,0,0,1,34.89,30Z"/><path d="M24,30a8,8,0,0,0,8,8c10.6-.4,10.6-15.6,0-16A8,8,0,0,0,24,30Zm14,0c-.25,7.93-11.75,7.93-12,0C26.25,22.07,37.75,22.07,38,30Z"/><path d="M43.92,42.62a1,1,0,0,0-1.84.76L46,52.9A4.44,4.44,0,0,1,41.91,59H30a1,1,0,0,0,0,2H41.91a6.46,6.46,0,0,0,5.94-8.86Z"/><path d="M27.71,59.29a1,1,0,0,0-1.42,1.42A1,1,0,0,0,27.71,59.29Z"/><path d="M24,59H22.09A4.44,4.44,0,0,1,18,52.9l3.92-9.52a1,1,0,0,0-1.84-.76l-3.93,9.52A6.46,6.46,0,0,0,22.09,61H24A1,1,0,0,0,24,59Z"/></g></svg>