<?xml version="1.0" encoding="utf-8"?>
<!-- Generator: Adobe Illustrator 25.0.0, SVG Export Plug-In . SVG Version: 6.00 Build 0)  -->
<svg version="1.1" id="Layer_1" xmlns="http://www.w3.org/2000/svg" xmlns:xlink="http://www.w3.org/1999/xlink" x="0px" y="0px"
	 viewBox="0 0 122.9 120.1" style="enable-background:new 0 0 122.9 120.1;" xml:space="preserve">
<path style="fill:#FFFFFF;" d="M7.9,99.5c-0.7,0-1.3-0.3-1.8-0.7c-0.5-0.5-0.7-1.1-0.7-1.8V44.2h94v5.1c1.9,0.4,3.8,0.9,5.5,1.5
	V18.3c0-2.2-0.9-4.2-2.3-5.6c-1.4-1.5-3.4-2.3-5.6-2.3h-9c-1.5,0-2.7,1.2-2.7,2.7s1.2,2.7,2.7,2.7h9c0.7,0,1.3,0.3,1.8,0.7
	c0.5,0.5,0.7,1.1,0.7,1.8v20.4h-94V18.3c0-0.7,0.3-1.3,0.7-1.8c0.5-0.5,1.1-0.7,1.8-0.7h9.6c1.5,0,2.7-1.2,2.7-2.7s-1.2-2.7-2.7-2.7
	H8c-2.2,0-4.2,0.9-5.6,2.3C0.9,14.2,0,16.2,0,18.4v78.7c0,2.2,0.9,4.2,2.3,5.6c1.4,1.5,3.4,2.3,5.6,2.3h46.6
	c-0.8-1.8-1.4-3.6-1.9-5.5H7.9z"/>
<path style="fill:#FFFFFF;" d="M35,73h13.5c0.3,0,0.5-1.2,0.5-2.7s-0.2-2.7-0.5-2.7H35c-0.3,0-0.5,1.2-0.5,2.7S34.7,73,35,73z"/>
<path style="fill:#FFFFFF;" d="M48.4,57.4c0.3,0,0.5-1.2,0.5-2.7c0-1.5-0.2-2.7-0.5-2.7H34.9c-0.3,0-0.5,1.2-0.5,2.7
	s0.2,2.7,0.5,2.7H48.4z"/>
<path style="fill:#FFFFFF;" d="M35,88.7h13.5c0.3,0,0.5-1.2,0.5-2.7s-0.2-2.7-0.5-2.7H35c-0.3,0-0.5,1.2-0.5,2.7S34.7,88.7,35,88.7z
	"/>
<path style="fill:#FFFFFF;" d="M30.2,25.8c2.7,0,4.9-1.8,4.9-4V4c0-2.2-2.2-4-4.9-4c-2.7,0-4.9,1.8-4.9,4v17.7
	C25.3,24,27.5,25.8,30.2,25.8z"/>
<path style="fill:#FFFFFF;" d="M43.1,15.8h18.4c1.5,0,2.7-1.2,2.7-2.7s-1.2-2.7-2.7-2.7H43.1c-1.5,0-2.7,1.2-2.7,2.7
	S41.6,15.8,43.1,15.8z"/>
<path style="fill:#FFFFFF;" d="M74.6,25.8c2.7,0,4.9-1.8,4.9-4V4c0-2.2-2.2-4-4.9-4c-2.7,0-4.9,1.8-4.9,4v17.7
	C69.7,24,71.9,25.8,74.6,25.8z"/>
<path style="fill:#FFFFFF;" d="M105.7,96.7L105.7,96.7l-11.1-6.6V75.4c0-0.8-0.3-1.5-0.8-2s-1.2-0.8-2-0.8c-0.8,0-1.5,0.3-2,0.8
	s-0.8,1.2-0.8,2l0,16.3c0,0.5,0.1,1,0.4,1.4c0.3,0.4,0.6,0.8,1.1,1l12.3,7.3c0.6,0.4,1.4,0.5,2.1,0.3c0.6-0.2,1.2-0.6,1.6-1.2
	c0,0,0-0.1,0.1-0.1l0,0c0.4-0.6,0.5-1.4,0.3-2.1C106.7,97.7,106.3,97.1,105.7,96.7z"/>
<path style="fill:#FFFFFF;" d="M70.4,54.6c0-1.5-0.2-2.7-0.5-2.7H56.4c-0.3,0-0.5,1.2-0.5,2.7s0.2,2.7,0.5,2.7h10.1
	C67.8,56.4,69.1,55.5,70.4,54.6z"/>
<path style="fill:#FFFFFF;" d="M120.5,76.5c-1.6-3.8-3.9-7.3-6.8-10.2c-2.9-2.9-6.4-5.2-10.2-6.8c-3.7-1.5-7.8-2.4-12-2.4
	c-4.3,0-8.3,0.9-12,2.4c-3.8,1.6-7.3,3.9-10.2,6.8c-2.9,2.9-5.2,6.4-6.8,10.2c-1.5,3.7-2.4,7.8-2.4,12s0.9,8.3,2.4,12.1
	c1.6,3.9,3.9,7.3,6.8,10.2c2.9,2.9,6.4,5.2,10.2,6.8c3.7,1.5,7.8,2.4,12,2.4s8.3-0.8,12-2.4c3.9-1.6,7.3-3.9,10.2-6.8
	c2.9-2.9,5.2-6.4,6.8-10.2c1.5-3.7,2.4-7.8,2.4-12S122,80.2,120.5,76.5z M109.8,106.9c-2.4,2.4-5.3,4.3-8.4,5.6c-3.1,1.3-6.4,2-10,2
	c-3.5,0-6.9-0.7-10-2c-3.2-1.3-6-3.2-8.4-5.6c-2.4-2.4-4.3-5.3-5.6-8.4c-1.3-3.1-2-6.4-2-10c0-3.5,0.7-6.9,2-9.9
	c1.3-3.2,3.2-6,5.6-8.4c2.4-2.4,5.3-4.3,8.4-5.6c3.1-1.3,6.4-2,10-2c3.5,0,6.9,0.7,10,2c3.2,1.3,6,3.2,8.4,5.6
	c2.4,2.4,4.3,5.3,5.7,8.4c1.3,3.1,2,6.4,2,9.9C117.4,95.7,114.5,102.2,109.8,106.9z"/>
<path style="fill:#FFFFFF;" d="M13.5,88.7H27c0.3,0,0.5-1.2,0.5-2.7s-0.2-2.7-0.5-2.7H13.5c-0.3,0-0.5,1.2-0.5,2.7
	S13.2,88.7,13.5,88.7z"/>
<path style="fill:#FFFFFF;" d="M26.9,57.4c0.3,0,0.5-1.2,0.5-2.7c0-1.5-0.2-2.7-0.5-2.7H13.5c-0.3,0-0.5,1.2-0.5,2.7
	s0.2,2.7,0.5,2.7H26.9z"/>
<path style="fill:#FFFFFF;" d="M13.5,73H27c0.3,0,0.5-1.2,0.5-2.7s-0.2-2.7-0.5-2.7H13.5c-0.3,0-0.5,1.2-0.5,2.7S13.2,73,13.5,73z"
	/>
</svg>
