<svg version="1.1" xmlns="http://www.w3.org/2000/svg" viewBox="0 0 38 40">
	<path d="M36.6,6C36.5,6,36.5,6,36.6,6h-3.3c-0.2,0-0.3,0-0.5,0h-6.8c-0.5-3.4-3.4-6-6.9-6s-6.4,2.6-6.9,6H5.3C5.2,6,5.1,6,5,6
		C4.9,6,4.9,6,4.8,6H1.5C0.7,6,0,6.7,0,7.5C0,8.3,0.7,9,1.5,9c0,0,0,0,0,0h2.1l2.5,26c0.3,2.8,2.7,5,5.5,5h14.7c2.8,0,5.2-2.2,5.5-5
		l2.5-26h2.1C37.3,9,38,8.3,38,7.5C38.1,6.7,37.4,6,36.6,6z M19,3c1.9,0,3.4,1.3,3.9,3h-7.7C15.6,4.3,17.1,3,19,3z M28.9,34.7
		C28.8,36,27.7,37,26.4,37H11.7c-1.3,0-2.4-1-2.5-2.3L6.7,9h24.7L28.9,34.7z"/>
	<path d="M22.5,32c0.8,0,1.5-0.7,1.5-1.5c0,0,0,0,0,0v-15c0-0.8-0.7-1.5-1.5-1.5c0,0,0,0,0,0c-0.8,0-1.5,0.7-1.5,1.5v15
		C21,31.3,21.7,32,22.5,32z"/>
	<path d="M15.5,32c0.8,0,1.5-0.7,1.5-1.5c0,0,0,0,0,0v-15c0-0.8-0.7-1.5-1.5-1.5c0,0,0,0,0,0c-0.8,0-1.5,0.7-1.5,1.5v15
		C14,31.3,14.7,32,15.5,32z"/>
</svg>