<?xml version="1.0" encoding="utf-8"?>
<!-- Generator: Adobe Illustrator 25.0.0, SVG Export Plug-In . SVG Version: 6.00 Build 0)  -->
<svg version="1.1" id="Layer_1" xmlns="http://www.w3.org/2000/svg" xmlns:xlink="http://www.w3.org/1999/xlink" x="0px" y="0px"
	 viewBox="0 0 64 58.7" style="enable-background:new 0 0 64 58.7;" xml:space="preserve">
<path d="M63.5,30.4L63.5,30.4l-5.3-6.8c-1-1.2-2.7-1.3-3.9-0.3c-0.1,0.1-0.2,0.2-0.3,0.3l-5.3,6.8c-0.9,1.2-0.7,2.8,0.5,3.7
	s2.8,0.7,3.7-0.5l0.2-0.2C50.8,46.5,38.3,55.2,25.3,53C12.2,50.7,3.5,38.3,5.7,25.3S20.4,3.4,33.4,5.7c5,0.9,9.6,3.3,13.1,6.9
	c1.1,1,2.8,0.9,3.8-0.2c0.9-1,0.9-2.5,0-3.6C39-2.8,20.4-3,8.8,8.4C-2.8,19.7-3,38.3,8.4,49.9s29.9,11.8,41.5,0.5
	c4.8-4.7,7.9-10.9,8.6-17.6l0.8,1c0.9,1.2,2.6,1.4,3.7,0.5C64.2,33.2,64.4,31.6,63.5,30.4z"/>
</svg>
