<?xml version="1.0" encoding="utf-8"?>
<!-- Generator: Adobe Illustrator 25.0.0, SVG Export Plug-In . SVG Version: 6.00 Build 0)  -->
<svg version="1.1" id="Layer_1" xmlns="http://www.w3.org/2000/svg" xmlns:xlink="http://www.w3.org/1999/xlink" x="0px" y="0px"
	 viewBox="0 0 64 64" style="enable-background:new 0 0 64 64;" xml:space="preserve">
<path style="fill:#35353D;" d="M63.2,59.5L47.3,43.5c9.3-11.4,7.6-28.2-3.8-37.6S15.3-1.7,6,9.7C-3.4,21.1-1.7,38,9.7,47.3
	c9.8,8,24,8,33.8,0l15.9,15.9c1.1,1,2.8,0.9,3.8-0.2C64.1,62,64.1,60.5,63.2,59.5z M26.7,48C14.9,48,5.3,38.5,5.3,26.7
	c0-11.8,9.5-21.3,21.3-21.3C38.4,5.3,48,14.9,48,26.7c0,0,0,0,0,0C48,38.4,38.4,48,26.7,48z"/>
</svg>
