<?xml version="1.0" encoding="utf-8"?>
<!-- Generator: Adobe Illustrator 25.0.0, SVG Export Plug-In . SVG Version: 6.00 Build 0)  -->
<svg version="1.1" id="Layer_1" xmlns="http://www.w3.org/2000/svg" xmlns:xlink="http://www.w3.org/1999/xlink" x="0px" y="0px"
	 viewBox="0 0 64 58.7" style="enable-background:new 0 0 64 58.7;" xml:space="preserve">
<path style="fill:#35353D;" d="M63.5,30.4L63.5,30.4l-5.3-6.8c-1-1.2-2.7-1.3-3.9-0.3c-0.1,0.1-0.2,0.2-0.3,0.3l-5.3,6.8
	c-0.9,1.2-0.7,2.8,0.5,3.7c1.2,0.9,2.8,0.7,3.7-0.5l0.2-0.2C50.8,46.5,38.3,55.2,25.3,53C12.2,50.7,3.5,38.3,5.7,25.3
	S20.4,3.4,33.4,5.7c5,0.9,9.6,3.3,13.1,6.9c1.1,1,2.8,0.9,3.8-0.2c0.9-1,0.9-2.5,0-3.6C39-2.8,20.4-3,8.8,8.4
	C-2.8,19.7-3,38.3,8.4,49.9s29.9,11.8,41.5,0.5c4.8-4.7,7.9-10.9,8.6-17.6l0.8,1c0.9,1.2,2.6,1.4,3.7,0.5
	C64.2,33.2,64.4,31.6,63.5,30.4z"/>
<path style="fill:#35353D;" d="M29.4,10.7c-1.5,0-2.7,1.2-2.7,2.7v16c0,0.2,0,0.4,0.1,0.6c0,0.2,0.1,0.4,0.2,0.6
	c0.1,0.2,0.2,0.3,0.3,0.5c0,0,0.1,0.1,0.1,0.1c0.1,0.1,0.2,0.2,0.4,0.4l0.1,0.1l4.2,3.2l6.4,4.8c0.5,0.4,1,0.5,1.6,0.5
	c1.5,0,2.7-1.2,2.7-2.7c0-0.8-0.4-1.6-1.1-2.1l-0.8-0.6L37.4,32l-3.5-2.7L32,28V13.4C32,11.9,30.9,10.7,29.4,10.7z"/>
</svg>
