<?xml version="1.0" encoding="utf-8"?>
<!-- Generator: Adobe Illustrator 25.0.0, SVG Export Plug-In . SVG Version: 6.00 Build 0)  -->
<svg version="1.1" id="Layer_1" xmlns="http://www.w3.org/2000/svg" xmlns:xlink="http://www.w3.org/1999/xlink" x="0px" y="0px"
	 viewBox="0 0 20 20" style="enable-background:new 0 0 20 20;" xml:space="preserve">
<g>
	<path d="M19,12c-0.6,0-1,0.4-1,1v4c0,0.6-0.4,1-1,1H3c-0.6,0-1-0.4-1-1v-4c0-0.6-0.4-1-1-1s-1,0.4-1,1v4c0,1.7,1.3,3,3,3h14
		c1.7,0,3-1.3,3-3v-4C20,12.4,19.6,12,19,12z"/>
	<path d="M5.7,6.7L9,3.4V13c0,0.6,0.4,1,1,1s1-0.4,1-1V3.4l3.3,3.3C14.5,6.9,14.7,7,15,7s0.5-0.1,0.7-0.3c0.4-0.4,0.4-1,0-1.4l-5-5
		c-0.1-0.1-0.2-0.2-0.3-0.2C10.1,0,9.9,0,9.6,0.1C9.5,0.1,9.4,0.2,9.3,0.3l-5,5c-0.4,0.4-0.4,1,0,1.4S5.3,7.1,5.7,6.7z"/>
</g>
</svg>
